<svg xmlns="http://www.w3.org/2000/svg" xmlns:xlink="http://www.w3.org/1999/xlink" width="500" zoomAndPan="magnify" viewBox="0 0 375 374.999991" height="500" preserveAspectRatio="xMidYMid meet" version="1.0"><defs><g><g id="id1"/><g id="id2"/></g></defs><g fill="rgb(0%, 0%, 0%)" fill-opacity="1"><g transform="translate(1.266183, 161.57426)"><g><path d="M 64.3125 -70.0625 L 64.3125 0 L 34.078125 0 L 34.078125 -70.0625 L 3.140625 -70.0625 L 3.140625 -94.15625 L 95.109375 -94.15625 L 95.109375 -70.0625 Z M 64.3125 -70.0625 "/></g></g></g><g fill="rgb(0%, 0%, 0%)" fill-opacity="1"><g transform="translate(100.05884, 161.57426)"><g><path d="M 99.484375 -65.28125 C 99.484375 -59.53125 97.929688 -54.328125 94.828125 -49.671875 C 91.734375 -45.015625 87.21875 -41.59375 81.28125 -39.40625 L 102.21875 0 L 68.28125 0 L 51.59375 -34.34375 L 40.375 -34.34375 L 40.375 0 L 10.125 0 L 10.125 -94.15625 L 67.734375 -94.15625 C 74.484375 -94.15625 80.253906 -92.851562 85.046875 -90.25 C 89.835938 -87.644531 93.441406 -84.128906 95.859375 -79.703125 C 98.273438 -75.285156 99.484375 -70.476562 99.484375 -65.28125 Z M 68.703125 -64.046875 C 68.703125 -66.503906 67.878906 -68.550781 66.234375 -70.1875 C 64.585938 -71.832031 62.582031 -72.65625 60.21875 -72.65625 L 40.375 -72.65625 L 40.375 -55.28125 L 60.21875 -55.28125 C 62.582031 -55.28125 64.585938 -56.125 66.234375 -57.8125 C 67.878906 -59.5 68.703125 -61.578125 68.703125 -64.046875 Z M 68.703125 -64.046875 "/></g></g></g><g fill="rgb(76.858521%, 7.058716%, 7.058716%)" fill-opacity="1"><g transform="translate(206.513774, 161.57426)"><g><path d="M 11.5 0 L 11.5 -94.15625 L 41.734375 -94.15625 L 41.734375 0 Z M 11.5 0 "/></g></g></g><g fill="rgb(0%, 0%, 0%)" fill-opacity="1"><g transform="translate(259.735491, 161.57426)"><g><path d="M 56.921875 -95.796875 C 73.160156 -95.796875 85.703125 -91.644531 94.546875 -83.34375 C 103.398438 -75.039062 107.828125 -62.953125 107.828125 -47.078125 C 107.828125 -31.203125 103.398438 -19.113281 94.546875 -10.8125 C 85.703125 -2.507812 73.160156 1.640625 56.921875 1.640625 C 40.679688 1.640625 28.160156 -2.484375 19.359375 -10.734375 C 10.554688 -18.992188 6.15625 -31.109375 6.15625 -47.078125 C 6.15625 -63.035156 10.554688 -75.144531 19.359375 -83.40625 C 28.160156 -91.664062 40.679688 -95.796875 56.921875 -95.796875 Z M 56.921875 -73.21875 C 50.453125 -73.21875 45.523438 -71.253906 42.140625 -67.328125 C 38.765625 -63.398438 37.078125 -58.109375 37.078125 -51.453125 L 37.078125 -42.6875 C 37.078125 -36.03125 38.765625 -30.738281 42.140625 -26.8125 C 45.523438 -22.894531 50.453125 -20.9375 56.921875 -20.9375 C 63.398438 -20.9375 68.347656 -22.894531 71.765625 -26.8125 C 75.191406 -30.738281 76.90625 -36.03125 76.90625 -42.6875 L 76.90625 -51.453125 C 76.90625 -58.109375 75.191406 -63.398438 71.765625 -67.328125 C 68.347656 -71.253906 63.398438 -73.21875 56.921875 -73.21875 Z M 56.921875 -73.21875 "/></g></g></g><g fill="rgb(76.858521%, 7.058716%, 7.058716%)" fill-opacity="1"><g transform="translate(20.671878, 200.737487)"><g><path d="M 13.671875 -4.171875 C 13.671875 -2.773438 13.125 -1.691406 12.03125 -0.921875 C 10.9375 -0.160156 9.394531 0.21875 7.40625 0.21875 C 3.71875 0.21875 1.582031 -1.0625 1 -3.625 L 2.984375 -4.03125 C 3.210938 -3.125 3.695312 -2.457031 4.4375 -2.03125 C 5.1875 -1.601562 6.203125 -1.390625 7.484375 -1.390625 C 8.804688 -1.390625 9.828125 -1.613281 10.546875 -2.0625 C 11.273438 -2.519531 11.640625 -3.191406 11.640625 -4.078125 C 11.640625 -4.566406 11.523438 -4.960938 11.296875 -5.265625 C 11.066406 -5.578125 10.75 -5.832031 10.34375 -6.03125 C 9.9375 -6.238281 9.445312 -6.410156 8.875 -6.546875 C 8.3125 -6.679688 7.6875 -6.828125 7 -6.984375 C 5.800781 -7.242188 4.894531 -7.503906 4.28125 -7.765625 C 3.664062 -8.035156 3.175781 -8.332031 2.8125 -8.65625 C 2.457031 -8.988281 2.179688 -9.375 1.984375 -9.8125 C 1.796875 -10.25 1.703125 -10.75 1.703125 -11.3125 C 1.703125 -12.601562 2.195312 -13.597656 3.1875 -14.296875 C 4.1875 -15.003906 5.609375 -15.359375 7.453125 -15.359375 C 9.171875 -15.359375 10.484375 -15.09375 11.390625 -14.5625 C 12.304688 -14.039062 12.945312 -13.144531 13.3125 -11.875 L 11.296875 -11.53125 C 11.066406 -12.332031 10.640625 -12.910156 10.015625 -13.265625 C 9.398438 -13.628906 8.539062 -13.8125 7.4375 -13.8125 C 6.226562 -13.8125 5.300781 -13.609375 4.65625 -13.203125 C 4.019531 -12.804688 3.703125 -12.210938 3.703125 -11.421875 C 3.703125 -10.953125 3.828125 -10.566406 4.078125 -10.265625 C 4.328125 -9.960938 4.679688 -9.703125 5.140625 -9.484375 C 5.609375 -9.273438 6.535156 -9.019531 7.921875 -8.71875 C 8.390625 -8.601562 8.851562 -8.488281 9.3125 -8.375 C 9.78125 -8.269531 10.222656 -8.140625 10.640625 -7.984375 C 11.066406 -7.828125 11.460938 -7.644531 11.828125 -7.4375 C 12.203125 -7.238281 12.523438 -6.988281 12.796875 -6.6875 C 13.066406 -6.382812 13.28125 -6.023438 13.4375 -5.609375 C 13.59375 -5.203125 13.671875 -4.722656 13.671875 -4.171875 Z M 13.671875 -4.171875 "/></g></g></g><g fill="rgb(76.858521%, 7.058716%, 7.058716%)" fill-opacity="1"><g transform="translate(35.3431, 200.737487)"><g><path d="M 7.734375 -13.453125 L 7.734375 0 L 5.6875 0 L 5.6875 -13.453125 L 0.5 -13.453125 L 0.5 -15.140625 L 12.9375 -15.140625 L 12.9375 -13.453125 Z M 7.734375 -13.453125 "/></g></g></g><g fill="rgb(76.858521%, 7.058716%, 7.058716%)" fill-opacity="1"><g transform="translate(48.779195, 200.737487)"><g><path d="M 7.859375 0.21875 C 6.617188 0.21875 5.535156 -0.00390625 4.609375 -0.453125 C 3.679688 -0.910156 2.960938 -1.566406 2.453125 -2.421875 C 1.953125 -3.285156 1.703125 -4.3125 1.703125 -5.5 L 1.703125 -15.140625 L 3.75 -15.140625 L 3.75 -5.671875 C 3.75 -4.285156 4.097656 -3.234375 4.796875 -2.515625 C 5.503906 -1.804688 6.519531 -1.453125 7.84375 -1.453125 C 9.207031 -1.453125 10.265625 -1.820312 11.015625 -2.5625 C 11.773438 -3.300781 12.15625 -4.382812 12.15625 -5.8125 L 12.15625 -15.140625 L 14.1875 -15.140625 L 14.1875 -5.6875 C 14.1875 -4.46875 13.925781 -3.410156 13.40625 -2.515625 C 12.894531 -1.628906 12.160156 -0.953125 11.203125 -0.484375 C 10.253906 -0.015625 9.140625 0.21875 7.859375 0.21875 Z M 7.859375 0.21875 "/></g></g></g><g fill="rgb(76.858521%, 7.058716%, 7.058716%)" fill-opacity="1"><g transform="translate(64.664074, 200.737487)"><g><path d="M 14.828125 -7.71875 C 14.828125 -6.15625 14.523438 -4.789062 13.921875 -3.625 C 13.316406 -2.457031 12.453125 -1.5625 11.328125 -0.9375 C 10.210938 -0.3125 8.925781 0 7.46875 0 L 1.8125 0 L 1.8125 -15.140625 L 6.8125 -15.140625 C 9.375 -15.140625 11.347656 -14.492188 12.734375 -13.203125 C 14.128906 -11.921875 14.828125 -10.09375 14.828125 -7.71875 Z M 12.765625 -7.71875 C 12.765625 -9.59375 12.25 -11.023438 11.21875 -12.015625 C 10.195312 -13.003906 8.710938 -13.5 6.765625 -13.5 L 3.859375 -13.5 L 3.859375 -1.640625 L 7.234375 -1.640625 C 8.335938 -1.640625 9.3125 -1.882812 10.15625 -2.375 C 11 -2.863281 11.644531 -3.566406 12.09375 -4.484375 C 12.539062 -5.398438 12.765625 -6.476562 12.765625 -7.71875 Z M 12.765625 -7.71875 "/></g></g></g><g fill="rgb(76.858521%, 7.058716%, 7.058716%)" fill-opacity="1"><g transform="translate(80.548953, 200.737487)"><g><path d="M 1.8125 0 L 1.8125 -15.140625 L 13.28125 -15.140625 L 13.28125 -13.453125 L 3.859375 -13.453125 L 3.859375 -8.609375 L 12.640625 -8.609375 L 12.640625 -6.953125 L 3.859375 -6.953125 L 3.859375 -1.671875 L 13.734375 -1.671875 L 13.734375 0 Z M 1.8125 0 "/></g></g></g><g fill="rgb(76.858521%, 7.058716%, 7.058716%)" fill-opacity="1"><g transform="translate(95.220174, 200.737487)"><g><path d="M 11.625 0 L 3.53125 -12.890625 L 3.578125 -11.84375 L 3.625 -10.0625 L 3.625 0 L 1.8125 0 L 1.8125 -15.140625 L 4.1875 -15.140625 L 12.375 -2.15625 C 12.289062 -3.5625 12.25 -4.578125 12.25 -5.203125 L 12.25 -15.140625 L 14.09375 -15.140625 L 14.09375 0 Z M 11.625 0 "/></g></g></g><g fill="rgb(76.858521%, 7.058716%, 7.058716%)" fill-opacity="1"><g transform="translate(111.105053, 200.737487)"><g><path d="M 7.734375 -13.453125 L 7.734375 0 L 5.6875 0 L 5.6875 -13.453125 L 0.5 -13.453125 L 0.5 -15.140625 L 12.9375 -15.140625 L 12.9375 -13.453125 Z M 7.734375 -13.453125 "/></g></g></g><g fill="rgb(76.858521%, 7.058716%, 7.058716%)" fill-opacity="1"><g transform="translate(124.541149, 200.737487)"><g/></g></g><g fill="rgb(76.858521%, 7.058716%, 7.058716%)" fill-opacity="1"><g transform="translate(130.652374, 200.737487)"><g><path d="M 13.671875 -4.171875 C 13.671875 -2.773438 13.125 -1.691406 12.03125 -0.921875 C 10.9375 -0.160156 9.394531 0.21875 7.40625 0.21875 C 3.71875 0.21875 1.582031 -1.0625 1 -3.625 L 2.984375 -4.03125 C 3.210938 -3.125 3.695312 -2.457031 4.4375 -2.03125 C 5.1875 -1.601562 6.203125 -1.390625 7.484375 -1.390625 C 8.804688 -1.390625 9.828125 -1.613281 10.546875 -2.0625 C 11.273438 -2.519531 11.640625 -3.191406 11.640625 -4.078125 C 11.640625 -4.566406 11.523438 -4.960938 11.296875 -5.265625 C 11.066406 -5.578125 10.75 -5.832031 10.34375 -6.03125 C 9.9375 -6.238281 9.445312 -6.410156 8.875 -6.546875 C 8.3125 -6.679688 7.6875 -6.828125 7 -6.984375 C 5.800781 -7.242188 4.894531 -7.503906 4.28125 -7.765625 C 3.664062 -8.035156 3.175781 -8.332031 2.8125 -8.65625 C 2.457031 -8.988281 2.179688 -9.375 1.984375 -9.8125 C 1.796875 -10.25 1.703125 -10.75 1.703125 -11.3125 C 1.703125 -12.601562 2.195312 -13.597656 3.1875 -14.296875 C 4.1875 -15.003906 5.609375 -15.359375 7.453125 -15.359375 C 9.171875 -15.359375 10.484375 -15.09375 11.390625 -14.5625 C 12.304688 -14.039062 12.945312 -13.144531 13.3125 -11.875 L 11.296875 -11.53125 C 11.066406 -12.332031 10.640625 -12.910156 10.015625 -13.265625 C 9.398438 -13.628906 8.539062 -13.8125 7.4375 -13.8125 C 6.226562 -13.8125 5.300781 -13.609375 4.65625 -13.203125 C 4.019531 -12.804688 3.703125 -12.210938 3.703125 -11.421875 C 3.703125 -10.953125 3.828125 -10.566406 4.078125 -10.265625 C 4.328125 -9.960938 4.679688 -9.703125 5.140625 -9.484375 C 5.609375 -9.273438 6.535156 -9.019531 7.921875 -8.71875 C 8.390625 -8.601562 8.851562 -8.488281 9.3125 -8.375 C 9.78125 -8.269531 10.222656 -8.140625 10.640625 -7.984375 C 11.066406 -7.828125 11.460938 -7.644531 11.828125 -7.4375 C 12.203125 -7.238281 12.523438 -6.988281 12.796875 -6.6875 C 13.066406 -6.382812 13.28125 -6.023438 13.4375 -5.609375 C 13.59375 -5.203125 13.671875 -4.722656 13.671875 -4.171875 Z M 13.671875 -4.171875 "/></g></g></g><g fill="rgb(76.858521%, 7.058716%, 7.058716%)" fill-opacity="1"><g transform="translate(145.323595, 200.737487)"><g><path d="M 7.859375 0.21875 C 6.617188 0.21875 5.535156 -0.00390625 4.609375 -0.453125 C 3.679688 -0.910156 2.960938 -1.566406 2.453125 -2.421875 C 1.953125 -3.285156 1.703125 -4.3125 1.703125 -5.5 L 1.703125 -15.140625 L 3.75 -15.140625 L 3.75 -5.671875 C 3.75 -4.285156 4.097656 -3.234375 4.796875 -2.515625 C 5.503906 -1.804688 6.519531 -1.453125 7.84375 -1.453125 C 9.207031 -1.453125 10.265625 -1.820312 11.015625 -2.5625 C 11.773438 -3.300781 12.15625 -4.382812 12.15625 -5.8125 L 12.15625 -15.140625 L 14.1875 -15.140625 L 14.1875 -5.6875 C 14.1875 -4.46875 13.925781 -3.410156 13.40625 -2.515625 C 12.894531 -1.628906 12.160156 -0.953125 11.203125 -0.484375 C 10.253906 -0.015625 9.140625 0.21875 7.859375 0.21875 Z M 7.859375 0.21875 "/></g></g></g><g fill="rgb(76.858521%, 7.058716%, 7.058716%)" fill-opacity="1"><g transform="translate(161.208474, 200.737487)"><g><path d="M 13.515625 -10.578125 C 13.515625 -9.148438 13.046875 -8.007812 12.109375 -7.15625 C 11.171875 -6.3125 9.898438 -5.890625 8.296875 -5.890625 L 3.859375 -5.890625 L 3.859375 0 L 1.8125 0 L 1.8125 -15.140625 L 8.171875 -15.140625 C 9.867188 -15.140625 11.179688 -14.738281 12.109375 -13.9375 C 13.046875 -13.144531 13.515625 -12.023438 13.515625 -10.578125 Z M 11.453125 -10.5625 C 11.453125 -12.519531 10.273438 -13.5 7.921875 -13.5 L 3.859375 -13.5 L 3.859375 -7.515625 L 8.015625 -7.515625 C 10.304688 -7.515625 11.453125 -8.53125 11.453125 -10.5625 Z M 11.453125 -10.5625 "/></g></g></g><g fill="rgb(76.858521%, 7.058716%, 7.058716%)" fill-opacity="1"><g transform="translate(175.879696, 200.737487)"><g><path d="M 13.515625 -10.578125 C 13.515625 -9.148438 13.046875 -8.007812 12.109375 -7.15625 C 11.171875 -6.3125 9.898438 -5.890625 8.296875 -5.890625 L 3.859375 -5.890625 L 3.859375 0 L 1.8125 0 L 1.8125 -15.140625 L 8.171875 -15.140625 C 9.867188 -15.140625 11.179688 -14.738281 12.109375 -13.9375 C 13.046875 -13.144531 13.515625 -12.023438 13.515625 -10.578125 Z M 11.453125 -10.5625 C 11.453125 -12.519531 10.273438 -13.5 7.921875 -13.5 L 3.859375 -13.5 L 3.859375 -7.515625 L 8.015625 -7.515625 C 10.304688 -7.515625 11.453125 -8.53125 11.453125 -10.5625 Z M 11.453125 -10.5625 "/></g></g></g><g fill="rgb(76.858521%, 7.058716%, 7.058716%)" fill-opacity="1"><g transform="translate(190.550917, 200.737487)"><g><path d="M 16.0625 -7.640625 C 16.0625 -6.054688 15.757812 -4.671875 15.15625 -3.484375 C 14.550781 -2.296875 13.679688 -1.378906 12.546875 -0.734375 C 11.410156 -0.0976562 10.078125 0.21875 8.546875 0.21875 C 6.984375 0.21875 5.640625 -0.09375 4.515625 -0.71875 C 3.390625 -1.351562 2.53125 -2.265625 1.9375 -3.453125 C 1.34375 -4.648438 1.046875 -6.046875 1.046875 -7.640625 C 1.046875 -10.054688 1.707031 -11.945312 3.03125 -13.3125 C 4.351562 -14.675781 6.195312 -15.359375 8.5625 -15.359375 C 10.101562 -15.359375 11.4375 -15.050781 12.5625 -14.4375 C 13.695312 -13.832031 14.5625 -12.941406 15.15625 -11.765625 C 15.757812 -10.597656 16.0625 -9.222656 16.0625 -7.640625 Z M 13.96875 -7.640625 C 13.96875 -9.523438 13.492188 -11.003906 12.546875 -12.078125 C 11.609375 -13.148438 10.28125 -13.6875 8.5625 -13.6875 C 6.832031 -13.6875 5.492188 -13.15625 4.546875 -12.09375 C 3.597656 -11.03125 3.125 -9.546875 3.125 -7.640625 C 3.125 -5.742188 3.601562 -4.238281 4.5625 -3.125 C 5.519531 -2.007812 6.847656 -1.453125 8.546875 -1.453125 C 10.285156 -1.453125 11.625 -1.988281 12.5625 -3.0625 C 13.5 -4.144531 13.96875 -5.671875 13.96875 -7.640625 Z M 13.96875 -7.640625 "/></g></g></g><g fill="rgb(76.858521%, 7.058716%, 7.058716%)" fill-opacity="1"><g transform="translate(207.660188, 200.737487)"><g><path d="M 12.5 0 L 8.578125 -6.28125 L 3.859375 -6.28125 L 3.859375 0 L 1.8125 0 L 1.8125 -15.140625 L 8.921875 -15.140625 C 10.628906 -15.140625 11.945312 -14.753906 12.875 -13.984375 C 13.800781 -13.222656 14.265625 -12.164062 14.265625 -10.8125 C 14.265625 -9.6875 13.9375 -8.738281 13.28125 -7.96875 C 12.625 -7.207031 11.722656 -6.722656 10.578125 -6.515625 L 14.875 0 Z M 12.203125 -10.78125 C 12.203125 -11.664062 11.898438 -12.335938 11.296875 -12.796875 C 10.703125 -13.265625 9.84375 -13.5 8.71875 -13.5 L 3.859375 -13.5 L 3.859375 -7.90625 L 8.8125 -7.90625 C 9.894531 -7.90625 10.726562 -8.15625 11.3125 -8.65625 C 11.90625 -9.164062 12.203125 -9.875 12.203125 -10.78125 Z M 12.203125 -10.78125 "/></g></g></g><g fill="rgb(76.858521%, 7.058716%, 7.058716%)" fill-opacity="1"><g transform="translate(223.545078, 200.737487)"><g><path d="M 7.734375 -13.453125 L 7.734375 0 L 5.6875 0 L 5.6875 -13.453125 L 0.5 -13.453125 L 0.5 -15.140625 L 12.9375 -15.140625 L 12.9375 -13.453125 Z M 7.734375 -13.453125 "/></g></g></g><g fill="rgb(76.858521%, 7.058716%, 7.058716%)" fill-opacity="1"><g transform="translate(236.981174, 200.737487)"><g/></g></g><g fill="rgb(76.858521%, 7.058716%, 7.058716%)" fill-opacity="1"><g transform="translate(243.09241, 200.737487)"><g><path d="M 13.671875 -4.171875 C 13.671875 -2.773438 13.125 -1.691406 12.03125 -0.921875 C 10.9375 -0.160156 9.394531 0.21875 7.40625 0.21875 C 3.71875 0.21875 1.582031 -1.0625 1 -3.625 L 2.984375 -4.03125 C 3.210938 -3.125 3.695312 -2.457031 4.4375 -2.03125 C 5.1875 -1.601562 6.203125 -1.390625 7.484375 -1.390625 C 8.804688 -1.390625 9.828125 -1.613281 10.546875 -2.0625 C 11.273438 -2.519531 11.640625 -3.191406 11.640625 -4.078125 C 11.640625 -4.566406 11.523438 -4.960938 11.296875 -5.265625 C 11.066406 -5.578125 10.75 -5.832031 10.34375 -6.03125 C 9.9375 -6.238281 9.445312 -6.410156 8.875 -6.546875 C 8.3125 -6.679688 7.6875 -6.828125 7 -6.984375 C 5.800781 -7.242188 4.894531 -7.503906 4.28125 -7.765625 C 3.664062 -8.035156 3.175781 -8.332031 2.8125 -8.65625 C 2.457031 -8.988281 2.179688 -9.375 1.984375 -9.8125 C 1.796875 -10.25 1.703125 -10.75 1.703125 -11.3125 C 1.703125 -12.601562 2.195312 -13.597656 3.1875 -14.296875 C 4.1875 -15.003906 5.609375 -15.359375 7.453125 -15.359375 C 9.171875 -15.359375 10.484375 -15.09375 11.390625 -14.5625 C 12.304688 -14.039062 12.945312 -13.144531 13.3125 -11.875 L 11.296875 -11.53125 C 11.066406 -12.332031 10.640625 -12.910156 10.015625 -13.265625 C 9.398438 -13.628906 8.539062 -13.8125 7.4375 -13.8125 C 6.226562 -13.8125 5.300781 -13.609375 4.65625 -13.203125 C 4.019531 -12.804688 3.703125 -12.210938 3.703125 -11.421875 C 3.703125 -10.953125 3.828125 -10.566406 4.078125 -10.265625 C 4.328125 -9.960938 4.679688 -9.703125 5.140625 -9.484375 C 5.609375 -9.273438 6.535156 -9.019531 7.921875 -8.71875 C 8.390625 -8.601562 8.851562 -8.488281 9.3125 -8.375 C 9.78125 -8.269531 10.222656 -8.140625 10.640625 -7.984375 C 11.066406 -7.828125 11.460938 -7.644531 11.828125 -7.4375 C 12.203125 -7.238281 12.523438 -6.988281 12.796875 -6.6875 C 13.066406 -6.382812 13.28125 -6.023438 13.4375 -5.609375 C 13.59375 -5.203125 13.671875 -4.722656 13.671875 -4.171875 Z M 13.671875 -4.171875 "/></g></g></g><g fill="rgb(76.858521%, 7.058716%, 7.058716%)" fill-opacity="1"><g transform="translate(257.763644, 200.737487)"><g><path d="M 1.8125 0 L 1.8125 -15.140625 L 13.28125 -15.140625 L 13.28125 -13.453125 L 3.859375 -13.453125 L 3.859375 -8.609375 L 12.640625 -8.609375 L 12.640625 -6.953125 L 3.859375 -6.953125 L 3.859375 -1.671875 L 13.734375 -1.671875 L 13.734375 0 Z M 1.8125 0 "/></g></g></g><g fill="rgb(76.858521%, 7.058716%, 7.058716%)" fill-opacity="1"><g transform="translate(272.434877, 200.737487)"><g><path d="M 12.5 0 L 8.578125 -6.28125 L 3.859375 -6.28125 L 3.859375 0 L 1.8125 0 L 1.8125 -15.140625 L 8.921875 -15.140625 C 10.628906 -15.140625 11.945312 -14.753906 12.875 -13.984375 C 13.800781 -13.222656 14.265625 -12.164062 14.265625 -10.8125 C 14.265625 -9.6875 13.9375 -8.738281 13.28125 -7.96875 C 12.625 -7.207031 11.722656 -6.722656 10.578125 -6.515625 L 14.875 0 Z M 12.203125 -10.78125 C 12.203125 -11.664062 11.898438 -12.335938 11.296875 -12.796875 C 10.703125 -13.265625 9.84375 -13.5 8.71875 -13.5 L 3.859375 -13.5 L 3.859375 -7.90625 L 8.8125 -7.90625 C 9.894531 -7.90625 10.726562 -8.15625 11.3125 -8.65625 C 11.90625 -9.164062 12.203125 -9.875 12.203125 -10.78125 Z M 12.203125 -10.78125 "/></g></g></g><g fill="rgb(76.858521%, 7.058716%, 7.058716%)" fill-opacity="1"><g transform="translate(288.319756, 200.737487)"><g><path d="M 8.40625 0 L 6.28125 0 L 0.09375 -15.140625 L 2.25 -15.140625 L 6.453125 -4.484375 L 7.34375 -1.8125 L 8.25 -4.484375 L 12.421875 -15.140625 L 14.578125 -15.140625 Z M 8.40625 0 "/></g></g></g><g fill="rgb(76.858521%, 7.058716%, 7.058716%)" fill-opacity="1"><g transform="translate(302.990966, 200.737487)"><g><path d="M 2.03125 0 L 2.03125 -15.140625 L 4.078125 -15.140625 L 4.078125 0 Z M 2.03125 0 "/></g></g></g><g fill="rgb(76.858521%, 7.058716%, 7.058716%)" fill-opacity="1"><g transform="translate(309.102202, 200.737487)"><g><path d="M 8.515625 -13.6875 C 6.835938 -13.6875 5.53125 -13.144531 4.59375 -12.0625 C 3.664062 -10.988281 3.203125 -9.515625 3.203125 -7.640625 C 3.203125 -5.785156 3.6875 -4.289062 4.65625 -3.15625 C 5.625 -2.03125 6.9375 -1.46875 8.59375 -1.46875 C 10.71875 -1.46875 12.3125 -2.519531 13.375 -4.625 L 15.046875 -3.78125 C 14.421875 -2.476562 13.546875 -1.484375 12.421875 -0.796875 C 11.296875 -0.117188 9.988281 0.21875 8.5 0.21875 C 6.96875 0.21875 5.644531 -0.0976562 4.53125 -0.734375 C 3.425781 -1.367188 2.582031 -2.273438 2 -3.453125 C 1.414062 -4.628906 1.125 -6.023438 1.125 -7.640625 C 1.125 -10.054688 1.773438 -11.945312 3.078125 -13.3125 C 4.378906 -14.675781 6.179688 -15.359375 8.484375 -15.359375 C 10.097656 -15.359375 11.441406 -15.039062 12.515625 -14.40625 C 13.597656 -13.78125 14.394531 -12.847656 14.90625 -11.609375 L 12.96875 -10.96875 C 12.613281 -11.851562 12.046875 -12.523438 11.265625 -12.984375 C 10.492188 -13.453125 9.578125 -13.6875 8.515625 -13.6875 Z M 8.515625 -13.6875 "/></g></g></g><g fill="rgb(76.858521%, 7.058716%, 7.058716%)" fill-opacity="1"><g transform="translate(324.987081, 200.737487)"><g><path d="M 1.8125 0 L 1.8125 -15.140625 L 13.28125 -15.140625 L 13.28125 -13.453125 L 3.859375 -13.453125 L 3.859375 -8.609375 L 12.640625 -8.609375 L 12.640625 -6.953125 L 3.859375 -6.953125 L 3.859375 -1.671875 L 13.734375 -1.671875 L 13.734375 0 Z M 1.8125 0 "/></g></g></g><g fill="rgb(76.858521%, 7.058716%, 7.058716%)" fill-opacity="1"><g transform="translate(339.658292, 200.737487)"><g><path d="M 13.671875 -4.171875 C 13.671875 -2.773438 13.125 -1.691406 12.03125 -0.921875 C 10.9375 -0.160156 9.394531 0.21875 7.40625 0.21875 C 3.71875 0.21875 1.582031 -1.0625 1 -3.625 L 2.984375 -4.03125 C 3.210938 -3.125 3.695312 -2.457031 4.4375 -2.03125 C 5.1875 -1.601562 6.203125 -1.390625 7.484375 -1.390625 C 8.804688 -1.390625 9.828125 -1.613281 10.546875 -2.0625 C 11.273438 -2.519531 11.640625 -3.191406 11.640625 -4.078125 C 11.640625 -4.566406 11.523438 -4.960938 11.296875 -5.265625 C 11.066406 -5.578125 10.75 -5.832031 10.34375 -6.03125 C 9.9375 -6.238281 9.445312 -6.410156 8.875 -6.546875 C 8.3125 -6.679688 7.6875 -6.828125 7 -6.984375 C 5.800781 -7.242188 4.894531 -7.503906 4.28125 -7.765625 C 3.664062 -8.035156 3.175781 -8.332031 2.8125 -8.65625 C 2.457031 -8.988281 2.179688 -9.375 1.984375 -9.8125 C 1.796875 -10.25 1.703125 -10.75 1.703125 -11.3125 C 1.703125 -12.601562 2.195312 -13.597656 3.1875 -14.296875 C 4.1875 -15.003906 5.609375 -15.359375 7.453125 -15.359375 C 9.171875 -15.359375 10.484375 -15.09375 11.390625 -14.5625 C 12.304688 -14.039062 12.945312 -13.144531 13.3125 -11.875 L 11.296875 -11.53125 C 11.066406 -12.332031 10.640625 -12.910156 10.015625 -13.265625 C 9.398438 -13.628906 8.539062 -13.8125 7.4375 -13.8125 C 6.226562 -13.8125 5.300781 -13.609375 4.65625 -13.203125 C 4.019531 -12.804688 3.703125 -12.210938 3.703125 -11.421875 C 3.703125 -10.953125 3.828125 -10.566406 4.078125 -10.265625 C 4.328125 -9.960938 4.679688 -9.703125 5.140625 -9.484375 C 5.609375 -9.273438 6.535156 -9.019531 7.921875 -8.71875 C 8.390625 -8.601562 8.851562 -8.488281 9.3125 -8.375 C 9.78125 -8.269531 10.222656 -8.140625 10.640625 -7.984375 C 11.066406 -7.828125 11.460938 -7.644531 11.828125 -7.4375 C 12.203125 -7.238281 12.523438 -6.988281 12.796875 -6.6875 C 13.066406 -6.382812 13.28125 -6.023438 13.4375 -5.609375 C 13.59375 -5.203125 13.671875 -4.722656 13.671875 -4.171875 Z M 13.671875 -4.171875 "/></g></g></g><path stroke-linecap="round" transform="matrix(3.752138, 0, 0, 3.75, 12.845138, 177.81248)" fill="none" stroke-linejoin="miter" d="M 0.500386 0.00000546036 L 92.648881 0.00000546036 " stroke="rgb(0%, 0%, 0%)" stroke-width="1" stroke-opacity="1" stroke-miterlimit="4"/></svg>